<?xml version="1.0" encoding="UTF-8"?>
<svg xmlns="http://www.w3.org/2000/svg" xmlns:xlink="http://www.w3.org/1999/xlink" width="560.5pt" height="616.4pt" viewBox="0 0 560.5 616.4" version="1.1">
<defs>
<clipPath id="clip1">
  <path d="M 29 0 L 532 0 L 532 616.398438 L 29 616.398438 Z M 29 0 "/>
</clipPath>
<clipPath id="clip2">
  <path d="M 28 0 L 533 0 L 533 616.398438 L 28 616.398438 Z M 28 0 "/>
</clipPath>
</defs>
<g id="surface1">
<g clip-path="url(#clip1)" clip-rule="nonzero">
<path style=" stroke:none;fill-rule:evenodd;fill:rgb(10.594177%,9.812927%,9.423828%);fill-opacity:1;" d="M 280.289063 0.046875 C 352.40625 7.152344 429.382813 20.207031 523.691406 54.515625 C 509.789063 134.519531 510.367188 204.679688 523.691406 258.769531 C 560.507813 408.207031 461.425781 524.730469 280.289063 616.21875 C 99.152344 524.730469 0.0664063 408.207031 36.882813 258.769531 C 50.210938 204.679688 50.789063 134.519531 36.882813 54.515625 C 131.195313 20.207031 208.167969 7.152344 280.289063 0.046875 Z M 280.289063 0.046875 "/>
</g>
<g clip-path="url(#clip2)" clip-rule="nonzero">
<path style="fill:none;stroke-width:2;stroke-linecap:butt;stroke-linejoin:miter;stroke:rgb(0%,0%,0%);stroke-opacity:1;stroke-miterlimit:4;" d="M 2802.890625 6163.53125 C 3524.0625 6092.476563 4293.828125 5961.929688 5236.914063 5618.84375 C 5097.890625 4818.804688 5103.671875 4117.203125 5236.914063 3576.304688 C 5605.078125 2081.929688 4614.257813 916.695313 2802.890625 1.8125 C 991.523438 916.695313 0.664063 2081.929688 368.828125 3576.304688 C 502.109375 4117.203125 507.890625 4818.804688 368.828125 5618.84375 C 1311.953125 5961.929688 2081.679688 6092.476563 2802.890625 6163.53125 Z M 2802.890625 6163.53125 " transform="matrix(0.1,0,0,-0.1,0,616.4)"/>
</g>
<path style="fill-rule:evenodd;fill:rgb(0%,61.914063%,87.889099%);fill-opacity:1;stroke-width:2.16;stroke-linecap:butt;stroke-linejoin:miter;stroke:rgb(10.594177%,9.812927%,9.423828%);stroke-opacity:1;stroke-miterlimit:4;" d="M 2293.242188 5927.164063 C 2096.367188 5898.648438 1900.3125 5864.46875 1704.882813 5823.296875 C 1317.34375 5741.617188 937.34375 5633.921875 563.671875 5503.882813 C 662.460938 4865.796875 690.820313 4157.398438 537.421875 3534.742188 C 449.921875 3179.507813 438.75 2820.757813 529.0625 2464.859375 C 702.695313 1780.835938 1222.03125 1228.804688 1816.640625 795.835938 L 2146.875 4351.070313 C 2004.570313 4483.53125 1941.367188 4663.335938 1941.367188 4854.859375 C 1941.367188 4927.828125 1949.726563 4998.257813 1967.773438 5064.78125 L 1683.203125 5064.78125 L 1683.203125 4235.015625 L 1134.375 4235.015625 L 1134.375 5064.78125 L 787.265625 5064.78125 L 787.265625 5545.328125 L 2030.585938 5545.328125 L 2030.585938 5216.265625 C 2083.203125 5306.539063 2158.632813 5379.078125 2247.382813 5433.335938 Z M 2293.242188 5927.164063 " transform="matrix(0.1,0,0,-0.1,0,616.4)"/>
<path style="fill-rule:evenodd;fill:rgb(0%,56.443787%,20.776367%);fill-opacity:1;stroke-width:2.16;stroke-linecap:butt;stroke-linejoin:miter;stroke:rgb(10.594177%,9.812927%,9.423828%);stroke-opacity:1;stroke-miterlimit:4;" d="M 5042.070313 5503.882813 C 4668.4375 5633.921875 4288.4375 5741.617188 3900.859375 5823.296875 C 3712.539063 5862.984375 3523.632813 5896.148438 3333.90625 5924.039063 L 3387.265625 5270.25 L 3389.140625 5267.710938 L 3389.765625 5266.8125 C 3395.078125 5259.46875 3400.195313 5252.007813 3405.078125 5244.46875 L 3405.234375 5244.273438 L 3405.234375 5244.234375 C 3406.796875 5241.851563 3408.359375 5239.429688 3409.882813 5237.007813 L 3410.664063 5235.71875 L 3412.695313 5232.515625 L 3412.695313 5232.476563 C 3416.757813 5225.914063 3420.664063 5219.273438 3424.414063 5212.59375 L 3424.53125 5212.398438 C 3426.015625 5209.78125 3427.5 5207.085938 3428.945313 5204.429688 C 3429.570313 5203.296875 3430.15625 5202.125 3430.78125 5200.992188 L 3431.40625 5199.78125 C 3432.03125 5198.609375 3432.65625 5197.476563 3433.242188 5196.304688 L 3433.28125 5196.226563 C 3436.015625 5190.992188 3438.710938 5185.679688 3441.289063 5180.367188 L 3441.640625 5179.585938 C 3444.21875 5174.234375 3446.71875 5168.882813 3449.101563 5163.492188 L 3449.492188 5162.632813 C 3453.789063 5153.023438 3457.8125 5143.296875 3461.601563 5133.492188 L 3461.757813 5133.023438 L 3463.164063 5129.273438 L 3463.515625 5128.414063 L 3464.921875 5124.546875 L 3464.921875 5533.21875 L 4212.421875 5533.21875 C 4308.75 5533.21875 4421.132813 5529.039063 4514.179688 5502.476563 C 4596.25 5479.429688 4666.367188 5435.210938 4719.726563 5368.648438 C 4775.546875 5299.234375 4800.546875 5216.382813 4800.546875 5127.710938 C 4800.546875 5050.875 4781.679688 4977.710938 4738.671875 4913.609375 L 4738.398438 4913.21875 C 4708.398438 4869.039063 4670.820313 4832.359375 4627.578125 4802.59375 C 4629.53125 4800.484375 4631.445313 4798.453125 4633.359375 4796.421875 L 4633.632813 4796.070313 C 4657.34375 4770.40625 4683.75 4740.796875 4701.210938 4710.328125 L 4966.601563 4262.984375 C 4946.09375 4678.6875 4980.351563 5105.015625 5042.070313 5503.882813 Z M 3446.679688 4542.554688 L 3464.921875 4319.234375 L 3464.921875 4587.828125 L 3464.6875 4587.085938 L 3464.414063 4586.382813 L 3464.335938 4586.109375 L 3464.140625 4585.679688 L 3463.90625 4584.9375 L 3463.710938 4584.429688 L 3463.632813 4584.234375 L 3463.359375 4583.53125 L 3463.125 4582.789063 L 3463.085938 4582.710938 L 3462.851563 4582.085938 L 3462.8125 4582.007813 L 3462.460938 4581.03125 L 3462.34375 4580.640625 L 3462.070313 4579.9375 L 3461.835938 4579.3125 L 3461.796875 4579.234375 L 3461.523438 4578.492188 L 3460.703125 4576.382813 L 3460.429688 4575.640625 L 3460.195313 4574.9375 L 3459.375 4572.828125 L 3459.257813 4572.554688 L 3459.101563 4572.085938 C 3457.773438 4568.726563 3456.445313 4565.367188 3455.078125 4562.007813 C 3452.773438 4556.421875 3450.429688 4550.875 3447.929688 4545.328125 L 3447.617188 4544.625 L 3447.421875 4544.195313 L 3447.304688 4543.960938 Z M 3471.484375 4239.039063 L 3754.648438 770.914063 C 4363.59375 1207.554688 4899.726563 1767.671875 5076.679688 2464.859375 C 5167.03125 2820.757813 5155.859375 3179.507813 5068.320313 3534.742188 C 5012.65625 3760.679688 4980.976563 3997.945313 4967.851563 4239.039063 L 4303.710938 4239.039063 L 4066.601563 4620.71875 C 4065.078125 4623.179688 4063.164063 4626.265625 4060.976563 4629.742188 L 4060.976563 4239.039063 Z M 3471.484375 4239.039063 " transform="matrix(0.1,0,0,-0.1,0,616.4)"/>
<path style=" stroke:none;fill-rule:evenodd;fill:rgb(89.0625%,0%,8.616638%);fill-opacity:1;" d="M 356.910156 182.078125 L 356.910156 73.496094 L 421.242188 73.496094 C 433.167969 73.496094 442.300781 74.378906 448.582031 76.175781 C 454.890625 77.945313 459.980469 81.230469 463.847656 86.058594 C 467.71875 90.863281 469.636719 96.730469 469.636719 103.628906 C 469.636719 109.671875 468.152344 114.855469 465.214844 119.230469 C 462.25 123.601563 458.179688 127.140625 453.03125 129.875 C 449.714844 131.59375 445.207031 133.035156 439.476563 134.144531 C 444.074219 135.484375 447.417969 136.824219 449.539063 138.164063 C 450.9375 139.050781 453 140.945313 455.707031 143.855469 C 458.410156 146.785156 460.214844 149.011719 461.117188 150.605469 L 479.785156 182.078125 L 436.164063 182.078125 L 415.542969 148.882813 C 412.925781 144.613281 410.597656 141.804688 408.535156 140.515625 C 405.769531 138.847656 402.601563 138.011719 399.082031 138.011719 L 395.679688 138.011719 L 395.679688 182.078125 Z M 395.679688 117.484375 L 411.964844 117.484375 C 413.710938 117.484375 417.113281 117.003906 422.171875 116.019531 C 424.734375 115.5625 426.828125 114.425781 428.457031 112.605469 C 430.054688 110.785156 430.867188 108.6875 430.867188 106.308594 C 430.867188 102.796875 429.589844 100.117188 427.03125 98.246094 C 424.472656 96.347656 419.671875 95.414063 412.632813 95.414063 L 395.679688 95.414063 Z M 395.679688 117.484375 "/>
<path style=" stroke:none;fill-rule:evenodd;fill:rgb(89.0625%,0%,8.616638%);fill-opacity:1;" d="M 245.082031 131.070313 C 245.082031 142.566406 247.523438 150.804688 252.4375 155.835938 C 257.351563 160.84375 264.0625 163.359375 272.515625 163.359375 C 281.214844 163.359375 287.957031 160.894531 292.71875 155.996094 C 297.480469 151.070313 299.890625 142.25 299.890625 129.535156 C 299.890625 118.808594 297.386719 110.996094 292.414063 106.042969 C 287.4375 101.117188 280.695313 98.652344 272.148438 98.652344 C 264.003906 98.652344 257.441406 101.140625 252.496094 106.175781 C 247.554688 111.179688 245.082031 119.496094 245.082031 131.070313 Z M 204.554688 130.914063 C 204.554688 112.347656 210.539063 97.882813 222.4375 87.554688 C 234.371094 77.199219 250.972656 72.035156 272.242188 72.035156 C 294.0625 72.035156 310.875 77.121094 322.683594 87.289063 C 334.464844 97.433594 340.382813 111.683594 340.382813 129.984375 C 340.382813 143.28125 337.789063 154.195313 332.632813 162.695313 C 327.476563 171.199219 320.03125 177.820313 310.296875 182.5625 C 300.53125 187.300781 288.414063 189.660156 273.859375 189.660156 C 259.089844 189.660156 246.851563 187.621094 237.148438 183.539063 C 227.472656 179.433594 219.632813 172.972656 213.589844 164.125 C 207.578125 155.28125 204.554688 144.207031 204.554688 130.914063 Z M 204.554688 130.914063 "/>
<path style=" stroke:none;fill-rule:evenodd;fill:rgb(89.0625%,0%,8.616638%);fill-opacity:1;" d="M 89.144531 72.285156 L 192.640625 72.285156 L 192.640625 99.503906 L 157.902344 99.503906 L 157.902344 182.480469 L 123.855469 182.480469 L 123.855469 99.503906 L 89.144531 99.503906 Z M 89.144531 72.285156 "/>
<path style="fill-rule:evenodd;fill:rgb(100%,100%,100%);fill-opacity:1;stroke-width:2;stroke-linecap:butt;stroke-linejoin:miter;stroke:rgb(0%,0%,0%);stroke-opacity:1;stroke-miterlimit:4;" d="M 2700.859375 304.117188 L 2709.257813 1102.398438 L 2881.328125 1102.398438 L 2879.609375 280.289063 Z M 2713.28125 1483.648438 L 2718.90625 2019.820313 L 2883.242188 2019.820313 L 2882.109375 1483.648438 Z M 2722.148438 2329.625 L 2734.921875 3544.898438 L 2886.445313 3544.898438 L 2883.90625 2329.625 Z M 2737.539063 3795.132813 L 2741.40625 4163.21875 C 2790 4163.335938 2839.0625 4165.875 2887.773438 4171.734375 L 2886.992188 3795.132813 Z M 2748.671875 4855.523438 L 2750.976563 5071.929688 C 2787.96875 5068.296875 2823.242188 5056.8125 2850.703125 5029.664063 C 2872.421875 5007.984375 2883.710938 4974.3125 2889.375 4940.171875 L 2889.21875 4855.523438 Z M 2755.9375 5547.4375 L 2756.679688 5618.0625 L 2890.820313 5618.0625 L 2890.625 5537.320313 C 2846.015625 5543.21875 2800.898438 5546.421875 2755.9375 5547.4375 Z M 2758.203125 5761.5 L 2760.429688 5975.523438 L 2891.523438 5951.695313 L 2891.09375 5761.5 Z M 2758.203125 5761.5 " transform="matrix(0.1,0,0,-0.1,0,616.4)"/>
<path style="fill:none;stroke-width:2.16;stroke-linecap:butt;stroke-linejoin:miter;stroke:rgb(10.594177%,9.812927%,9.423828%);stroke-opacity:1;stroke-miterlimit:4;" d="M 3446.679688 4542.554688 L 3464.921875 4319.234375 L 3464.921875 4587.828125 L 3464.6875 4587.085938 L 3464.414063 4586.382813 L 3464.335938 4586.109375 L 3464.140625 4585.679688 L 3463.90625 4584.9375 L 3463.710938 4584.429688 L 3463.632813 4584.234375 L 3463.359375 4583.53125 L 3463.125 4582.789063 L 3463.085938 4582.710938 L 3462.851563 4582.085938 L 3462.8125 4582.007813 L 3462.460938 4581.03125 L 3462.34375 4580.640625 L 3462.070313 4579.9375 L 3461.835938 4579.3125 L 3461.796875 4579.234375 L 3461.523438 4578.492188 L 3460.703125 4576.382813 L 3460.429688 4575.640625 L 3460.195313 4574.9375 L 3459.375 4572.828125 L 3459.257813 4572.554688 L 3459.101563 4572.085938 C 3457.773438 4568.726563 3456.445313 4565.367188 3455.078125 4562.007813 C 3452.773438 4556.421875 3450.429688 4550.875 3447.929688 4545.328125 L 3447.617188 4544.625 L 3447.421875 4544.195313 L 3447.304688 4543.960938 Z M 3446.679688 4542.554688 " transform="matrix(0.1,0,0,-0.1,0,616.4)"/>
<path style="fill-rule:evenodd;fill:rgb(100%,100%,100%);fill-opacity:1;stroke-width:2.16;stroke-linecap:butt;stroke-linejoin:miter;stroke:rgb(10.594177%,9.812927%,9.423828%);stroke-opacity:1;stroke-miterlimit:4;" d="M 3531.835938 3622.945313 L 3643.359375 3704.039063 C 3650.46875 3728.023438 3664.414063 3749.625 3690.820313 3756.03125 C 3715.507813 3762.007813 3739.296875 3750.757813 3759.882813 3738.21875 C 3764.53125 3735.367188 3773.203125 3729.351563 3780.15625 3725.40625 L 4631.601563 4270.5625 L 4749.648438 4132.867188 L 3899.765625 3597.085938 C 3893.125 3558.257813 3865.9375 3530.601563 3828.164063 3513.84375 L 3818.4375 3509.507813 L 3807.96875 3511.382813 C 3791.640625 3514.3125 3775.351563 3517.203125 3759.023438 3520.132813 C 3748.632813 3521.96875 3738.28125 3523.84375 3727.890625 3525.679688 L 3685.976563 3483.765625 L 3757.539063 3405.71875 L 2914.53125 2862.867188 L 2847.539063 2885.171875 L 2788.867188 2823.21875 C 2867.65625 2603.375 3078.710938 2435.835938 3267.695313 2313.414063 L 3301.523438 2291.460938 L 3015.664063 1968.0625 L 2600.546875 2316.03125 L 2362.734375 2155.757813 L 2406.289063 1751.460938 L 2094.375 1712.476563 L 2074.609375 2153.257813 C 2073.476563 2178.765625 2051.914063 2211.851563 2032.03125 2226.929688 C 1994.960938 2255.09375 1953.359375 2240.367188 1918.28125 2216.382813 L 1894.492188 2200.171875 L 1827.773438 2266.851563 L 1800.3125 2236.304688 L 1711.875 2090.679688 C 1735.9375 2054.742188 1748.515625 2011.851563 1726.914063 1970.40625 C 1711.953125 1941.773438 1684.296875 1922.164063 1655.039063 1910.09375 C 1633.515625 1901.1875 1604.257813 1894.039063 1577.5 1894.273438 L 1480.664063 1661.890625 L 1415.859375 1708.179688 L 1415.859375 1557.164063 L 1528.164063 1505.328125 L 1371.054688 1393.0625 L 850.742188 1926.734375 L 1721.835938 2470.40625 L 1733.828125 2566.226563 L 1921.132813 2689.15625 L 1909.101563 2767.476563 L 2076.40625 2876.226563 L 2119.53125 2814.625 L 2371.835938 2960.210938 L 2323.984375 3027.59375 L 2511.679688 3152.085938 L 2531.757813 3132.828125 C 2562.109375 3103.648438 2606.875 3091.890625 2648.554688 3087.554688 L 2736.25 3186.226563 L 3406.210938 3634.898438 Z M 2359.492188 2464.820313 C 2372.773438 2430.054688 2399.648438 2398.140625 2433.59375 2383.960938 L 2451.679688 2376.421875 C 2466.09375 2390.914063 2478.398438 2407.984375 2485.9375 2426.460938 C 2491.953125 2441.226563 2496.367188 2461.5 2488.945313 2476.578125 C 2488.007813 2478.492188 2486.875 2480.328125 2485.585938 2482.007813 C 2484.257813 2483.6875 2482.773438 2485.25 2481.132813 2486.617188 C 2468.320313 2497.515625 2447.578125 2498.179688 2431.796875 2495.953125 C 2406.015625 2492.359375 2380.585938 2480.210938 2359.492188 2464.820313 Z M 2359.492188 2464.820313 " transform="matrix(0.1,0,0,-0.1,0,616.4)"/>
<path style="fill-rule:evenodd;fill:rgb(10.594177%,9.812927%,9.423828%);fill-opacity:1;stroke-width:2;stroke-linecap:butt;stroke-linejoin:miter;stroke:rgb(0%,0%,0%);stroke-opacity:1;stroke-miterlimit:4;" d="M 3415.234375 3599.15625 L 2759.257813 3159.820313 L 2662.96875 3051.5 C 2593.945313 3055.875 2542.1875 3074.625 2507.695313 3107.789063 L 2373.046875 3018.492188 L 2422.265625 2949.195313 L 2109.335938 2768.648438 L 2067.1875 2828.84375 L 1946.835938 2750.601563 L 1958.867188 2672.359375 L 1766.289063 2545.992188 L 1754.257813 2449.703125 L 905.703125 1920.09375 L 1375.117188 1438.648438 L 1459.375 1498.84375 L 1381.132813 1534.9375 L 1381.132813 1775.679688 L 1465.390625 1715.484375 L 1555.664063 1932.125 C 1603.671875 1915.601563 1774.453125 1964.46875 1670 2088.609375 L 1772.304688 2257.125 L 1826.484375 2317.28125 L 1898.671875 2245.09375 C 2031.914063 2336.03125 2106.875 2209.585938 2109.335938 2154.820313 L 2127.382813 1751.578125 L 2368.085938 1781.695313 L 2325.976563 2172.867188 L 2602.8125 2359.429688 L 3012.03125 2016.382813 L 3248.789063 2284.273438 C 3006.015625 2441.578125 2817.734375 2616.929688 2749.296875 2831.890625 L 2837.5 2925.132813 L 2909.726563 2901.070313 L 3704.140625 3412.59375 L 3637.929688 3484.820313 L 3716.171875 3563.0625 C 3732.460938 3560.132813 3748.789063 3557.242188 3765.117188 3554.3125 C 3781.445313 3551.382813 3797.773438 3548.492188 3814.0625 3545.5625 C 3849.53125 3561.304688 3867.03125 3585.171875 3866.601563 3617.203125 L 4697.109375 4140.796875 L 4624.882813 4225.054688 L 3788.359375 3689.429688 C 3765.546875 3674.390625 3691.992188 3776.265625 3674.023438 3683.414063 L 3541.640625 3587.125 Z M 2333.28125 2488.53125 C 2328.515625 2484.820313 2323.945313 2480.953125 2319.570313 2476.96875 C 2332.070313 2421.65625 2371.445313 2372.28125 2420.234375 2351.929688 C 2383.945313 2327.828125 2329.53125 2351.265625 2267.96875 2403.140625 C 2256.289063 2371.226563 2257.695313 2340.132813 2275 2317.945313 C 2308.476563 2274.9375 2388.945313 2281.578125 2454.648438 2332.789063 C 2520.351563 2383.960938 2546.484375 2460.328125 2512.96875 2503.375 C 2479.453125 2546.382813 2398.984375 2539.742188 2333.28125 2488.53125 Z M 2333.28125 2488.53125 " transform="matrix(0.1,0,0,-0.1,0,616.4)"/>
<path style="fill-rule:evenodd;fill:rgb(100%,100%,100%);fill-opacity:1;stroke-width:2.16;stroke-linecap:butt;stroke-linejoin:miter;stroke:rgb(10.594177%,9.812927%,9.423828%);stroke-opacity:1;stroke-miterlimit:4;" d="M 3042.460938 3153.6875 C 3084.140625 3158.0625 3128.90625 3169.820313 3159.257813 3198.960938 L 3179.296875 3218.257813 L 3367.03125 3093.765625 L 3319.179688 3026.382813 L 3571.484375 2880.796875 L 3614.609375 2942.398438 L 3781.914063 2833.648438 L 3769.882813 2755.289063 L 3957.1875 2632.359375 L 3969.179688 2536.578125 L 4840.273438 1992.867188 L 4319.960938 1459.234375 L 4162.851563 1571.460938 L 4275.15625 1623.296875 L 4275.15625 1774.351563 L 4210.351563 1728.023438 L 4113.515625 1960.40625 C 4086.757813 1960.210938 4057.5 1967.359375 4035.976563 1976.226563 C 4006.71875 1988.335938 3979.0625 2007.945313 3964.101563 2036.578125 C 3942.5 2078.023438 3955.078125 2120.914063 3979.140625 2156.851563 L 3890.703125 2302.476563 L 3863.203125 2333.023438 L 3796.523438 2266.304688 L 3772.734375 2282.554688 C 3737.65625 2306.539063 3696.054688 2321.226563 3658.984375 2293.101563 C 3639.101563 2278.023438 3617.539063 2244.9375 3616.40625 2219.390625 L 3596.640625 1778.609375 L 3284.726563 1817.59375 L 3328.28125 2221.929688 L 3090.46875 2382.164063 L 2675.351563 2034.195313 L 2389.492188 2357.632813 L 2423.320313 2379.546875 C 2612.304688 2502.007813 2823.359375 2669.507813 2902.148438 2889.390625 L 2843.476563 2951.34375 L 2776.484375 2929 L 1933.4375 3471.851563 L 2005.039063 3549.9375 L 1963.125 3591.851563 C 1952.734375 3589.976563 1942.382813 3588.140625 1931.992188 3586.265625 C 1915.664063 3583.375 1899.375 3580.445313 1883.046875 3577.554688 L 1872.578125 3575.679688 L 1862.851563 3579.976563 C 1825.078125 3596.773438 1797.890625 3624.390625 1791.25 3663.21875 L 941.367188 4199 L 1059.414063 4336.734375 L 1910.859375 3791.539063 C 1917.8125 3795.484375 1926.445313 3801.5 1931.132813 3804.351563 C 1951.71875 3816.929688 1975.507813 3828.140625 2000.195313 3822.164063 C 2026.601563 3815.757813 2040.546875 3794.15625 2047.65625 3770.171875 L 2159.179688 3689.078125 L 2284.804688 3701.070313 L 2954.726563 3252.359375 Z M 3331.523438 2530.953125 C 3310.429688 2546.34375 3285 2558.492188 3259.21875 2562.125 C 3243.4375 2564.351563 3222.695313 2563.6875 3209.882813 2552.789063 C 3208.242188 2551.382813 3206.757813 2549.859375 3205.429688 2548.179688 C 3204.140625 2546.5 3203.007813 2544.664063 3202.03125 2542.75 C 3194.648438 2527.671875 3199.0625 2507.359375 3205.078125 2492.632813 C 3212.578125 2474.117188 3224.921875 2457.046875 3239.335938 2442.59375 L 3257.421875 2450.132813 C 3291.367188 2464.273438 3318.242188 2496.1875 3331.523438 2530.953125 Z M 3331.523438 2530.953125 " transform="matrix(0.1,0,0,-0.1,0,616.4)"/>
<path style="fill-rule:evenodd;fill:rgb(10.594177%,9.812927%,9.423828%);fill-opacity:1;stroke-width:2;stroke-linecap:butt;stroke-linejoin:miter;stroke:rgb(0%,0%,0%);stroke-opacity:1;stroke-miterlimit:4;" d="M 2275.742188 3665.328125 L 2931.71875 3225.992188 L 3028.007813 3117.671875 C 3097.03125 3122.007813 3148.828125 3140.757813 3183.320313 3173.921875 L 3317.929688 3084.625 L 3268.75 3015.367188 L 3581.679688 2834.820313 L 3623.828125 2894.976563 L 3744.179688 2816.773438 L 3732.148438 2738.53125 L 3924.726563 2612.125 L 3936.757813 2515.835938 L 4785.3125 1986.265625 L 4315.898438 1504.820313 L 4231.640625 1564.976563 L 4309.882813 1601.109375 L 4309.882813 1841.8125 L 4225.625 1781.65625 L 4135.351563 1998.296875 C 4087.34375 1981.773438 3916.5625 2030.640625 4021.015625 2154.78125 L 3918.710938 2323.257813 L 3864.53125 2383.453125 L 3792.34375 2311.226563 C 3659.101563 2402.203125 3584.140625 2275.757813 3581.679688 2220.953125 L 3563.632813 1817.75 L 3322.929688 1847.828125 L 3365.039063 2239 L 3088.203125 2425.5625 L 2678.984375 2082.554688 L 2442.226563 2350.40625 C 2685 2507.710938 2873.28125 2683.0625 2941.71875 2898.0625 L 2853.515625 2991.265625 L 2781.289063 2967.203125 L 1986.875 3478.765625 L 2053.085938 3550.953125 L 1974.84375 3629.195313 C 1958.515625 3626.304688 1942.226563 3623.375 1925.898438 3620.484375 C 1909.570313 3617.554688 1893.242188 3614.625 1876.953125 3611.734375 C 1841.484375 3627.476563 1823.984375 3651.34375 1824.414063 3683.375 L 993.90625 4206.929688 L 1066.09375 4291.1875 L 1902.617188 3755.601563 C 1925.46875 3740.523438 1999.023438 3842.4375 2016.992188 3749.585938 L 2149.375 3653.296875 Z M 3357.734375 2554.703125 C 3362.5 2550.953125 3367.070313 2547.125 3371.40625 2543.140625 C 3358.945313 2487.828125 3319.570313 2438.414063 3270.78125 2418.0625 C 3307.070313 2393.960938 3361.484375 2417.398438 3423.046875 2469.273438 C 3434.726563 2437.359375 3433.320313 2406.304688 3416.015625 2384.117188 C 3382.539063 2341.109375 3302.070313 2347.75 3236.367188 2398.921875 C 3170.664063 2450.09375 3144.53125 2526.5 3178.046875 2569.507813 C 3211.5625 2612.515625 3291.992188 2605.875 3357.734375 2554.703125 Z M 3357.734375 2554.703125 " transform="matrix(0.1,0,0,-0.1,0,616.4)"/>
</g>
</svg>
